Coordinates
version=1
nRows=16
nColumns=63
inDegrees=yes

Units are S.I. units (second, meters, Newtons, ...)
If the header above contains a line with 'inDegrees', this indicates whether rotational values are in degrees (yes) or radians (no).

endheader
time	pelvis_tilt	pelvis_list	pelvis_rotation	pelvis_tx	pelvis_ty	pelvis_tz	hip_flexion_r	hip_adduction_r	hip_rotation_r	knee_angle_r	knee_angle_r_beta	ankle_angle_r	subtalar_angle_r	mtp_angle_r	hip_flexion_l	hip_adduction_l	hip_rotation_l	knee_angle_l	knee_angle_l_beta	ankle_angle_l	subtalar_angle_l	mtp_angle_l	L5_S1_Flex_Ext	L5_S1_Lat_Bending	L5_S1_axial_rotation	L4_L5_Flex_Ext	L4_L5_Lat_Bending	L4_L5_axial_rotation	L3_L4_Flex_Ext	L3_L4_Lat_Bending	L3_L4_axial_rotation	L2_L3_Flex_Ext	L2_L3_Lat_Bending	L2_L3_axial_rotation	L1_L2_Flex_Ext	L1_L2_Lat_Bending	L1_L2_axial_rotation	L1_T12_Flex_Ext	L1_T12_Lat_Bending	L1_T12_axial_rotation	Abs_r3	Abs_r2	Abs_r1	Abs_t1	Abs_t2	neck_flexion	neck_bending	neck_rotation	arm_flex_r	arm_add_r	arm_rot_r	elbow_flex_r	pro_sup_r	wrist_flex_r	wrist_dev_r	arm_flex_l	arm_add_l	arm_rot_l	elbow_flex_l	pro_sup_l	wrist_flex_l	wrist_dev_l
1.779661	8.035011	6.113423	92.621424	0.104921	0.798634	0.829425	-1.639020	4.409812	-5.454669	7.409848	0.129326	29.530014	15.242597	0.000000	-2.963721	-2.795621	10.228504	5.296055	0.092434	28.310394	-10.626549	0.000000	0.179638	0.966919	0.751268	0.333606	1.286003	0.798222	0.295127	2.350967	0.798222	0.205308	2.350967	0.657359	0.166812	1.971742	0.610405	0.102645	1.497758	0.563451	1.283135	10.937983	4.178326	0.000000	0.000000	18.122883	-0.905436	15.422275	-0.605566	-23.495272	33.243193	35.270764	86.955350	-5.308952	2.274127	11.324543	-15.897436	72.689014	33.159878	88.757870	-3.730980	11.190307
1.796610	8.121726	5.945111	92.128410	0.105129	0.798467	0.830348	-1.231470	4.486281	-5.121133	7.600239	0.132649	29.616102	15.236275	0.000000	-2.902327	-2.838377	10.461474	5.155168	0.089975	28.059247	-11.178517	0.000000	0.182719	0.994134	0.796379	0.339327	1.322198	0.846153	0.300188	2.417137	0.846153	0.208829	2.417137	0.696832	0.169673	2.027238	0.647058	0.104405	1.539913	0.597285	1.305141	11.245840	4.429223	0.000000	0.000000	18.245310	-1.148348	16.081855	-0.259049	-23.587417	33.051812	35.923532	87.045228	-5.543063	1.724184	11.280992	-15.782956	71.528209	33.709974	88.666369	-4.768397	10.688448
1.813559	8.221112	5.710469	91.612940	0.105355	0.798067	0.831678	-0.637601	4.570581	-4.785721	7.959947	0.138927	29.772372	15.207966	0.000000	-2.758973	-2.889953	10.825870	4.990852	0.087107	27.781704	-11.872992	0.000000	0.186902	1.024378	0.842712	0.347097	1.362423	0.895381	0.307062	2.490673	0.895381	0.213611	2.490673	0.737373	0.173558	2.088912	0.684703	0.106796	1.586762	0.632034	1.335026	11.587971	4.686910	0.000000	0.000000	18.444859	-1.408992	16.855946	0.278300	-23.708209	33.069732	36.658162	87.154049	-6.036548	1.192609	11.250066	-15.638864	70.363580	34.279137	88.584217	-6.197306	10.030831
1.830508	8.305571	5.451848	91.161265	0.105589	0.797509	0.833410	0.054140	4.639382	-4.564394	8.412133	0.146819	29.991604	15.236640	0.000000	-2.552270	-2.936160	11.233699	4.828978	0.084282	27.535549	-12.489156	0.000000	0.187127	1.051849	0.882657	0.347514	1.398959	0.937823	0.307432	2.557465	0.937823	0.213868	2.557465	0.772325	0.173767	2.144930	0.717159	0.106925	1.629313	0.661993	1.336632	11.898721	4.909072	0.000000	0.000000	18.669912	-1.632119	17.677193	0.967174	-23.782015	33.158420	37.441951	87.323875	-6.717567	0.669670	11.335142	-15.493075	69.460194	34.848749	88.584159	-7.741404	9.317821
1.847458	8.376475	5.149677	90.763776	0.105850	0.796750	0.835498	0.881038	4.689733	-4.433462	9.003106	0.157134	30.290375	15.289819	0.000000	-2.264676	-2.972663	11.764537	4.664854	0.081417	27.300057	-13.173296	0.000000	0.186978	1.076048	0.920471	0.347237	1.431143	0.978001	0.307187	2.616302	0.978001	0.213697	2.616302	0.805412	0.173628	2.194276	0.747883	0.106839	1.666798	0.690353	1.335567	12.172466	5.119385	0.000000	0.000000	18.941982	-1.849367	18.479392	1.742948	-23.816342	33.245414	38.344797	87.540442	-7.529365	0.218259	11.488360	-15.374341	68.605886	35.488611	88.838321	-9.235248	8.597698
1.864407	8.418966	4.802940	90.442750	0.106153	0.795800	0.837908	1.827066	4.706464	-4.406049	9.709479	0.169462	30.656744	15.358510	0.000000	-1.880958	-2.987669	12.308227	4.522029	0.078924	27.109352	-13.793282	0.000000	0.187210	1.093913	0.948115	0.347669	1.454905	1.007372	0.307568	2.659741	1.007372	0.213963	2.659741	0.829601	0.173844	2.230708	0.770343	0.106972	1.694472	0.711086	1.337226	12.374566	5.273131	0.000000	0.000000	19.252404	-2.039302	19.220947	2.600818	-23.783359	33.342980	39.369303	87.799077	-8.436769	-0.101028	11.625722	-15.292070	67.515676	36.241342	89.319083	-10.374196	8.059113
1.881356	8.433502	4.419048	90.230101	0.106477	0.794680	0.840590	2.862119	4.684583	-4.513540	10.500999	0.183277	31.084382	15.459819	0.000000	-1.399739	-2.979567	12.872723	4.417469	0.077099	26.962887	-14.356270	0.000000	0.188193	1.104919	0.955229	0.349493	1.469542	1.014930	0.309182	2.686500	1.014930	0.215085	2.686500	0.835825	0.174756	2.253151	0.776123	0.107533	1.711520	0.716421	1.344241	12.499065	5.312694	0.000000	0.000000	19.563812	-2.177369	19.904388	3.550141	-23.679391	33.536126	40.505124	88.021606	-9.441887	-0.289818	11.710054	-15.237527	66.139856	37.099867	89.739694	-11.094350	7.794913
1.898305	8.412025	4.006338	90.145867	0.106828	0.793404	0.843526	3.961367	4.615157	-4.739496	11.355890	0.198198	31.562547	15.557444	0.000000	-0.816387	-2.940723	13.397589	4.379697	0.076440	26.877041	-14.794125	0.000000	0.189844	1.107013	0.940815	0.352559	1.472327	0.999616	0.311894	2.691591	0.999616	0.216972	2.691591	0.823213	0.176289	2.257420	0.764412	0.108477	1.714763	0.705611	1.356035	12.522749	5.232530	0.000000	0.000000	19.845506	-2.242296	20.453516	4.585453	-23.507631	33.880520	41.751876	88.123128	-10.596735	-0.375136	11.799886	-15.222902	64.665682	38.061162	89.678560	-11.420198	7.858110
1.915254	8.353889	3.570586	90.219139	0.107190	0.791988	0.846630	5.089795	4.495986	-5.093628	12.231847	0.213486	32.083152	15.654108	0.000000	-0.124068	-2.871010	13.826495	4.438162	0.077461	26.875992	-15.034281	0.000000	0.193756	1.099583	0.896373	0.359824	1.462446	0.952396	0.318321	2.673527	0.952396	0.221443	2.673527	0.784326	0.179922	2.242270	0.728303	0.110712	1.703254	0.672280	1.383978	12.438705	4.985358	0.000000	0.000000	20.062291	-2.238402	20.848104	5.717420	-23.277623	34.496705	43.091105	88.092351	-11.933130	-0.367285	11.892794	-15.268546	63.185646	39.130447	89.008561	-11.522245	8.143622
1.932203	8.259802	3.131904	90.422417	0.107591	0.790479	0.849791	6.198684	4.333946	-5.522583	13.087676	0.228423	32.621476	15.744579	0.000000	0.637175	-2.763216	14.256909	4.582199	0.079974	26.918323	-15.262517	0.000000	0.199314	1.081755	0.833191	0.370145	1.438734	0.885265	0.327452	2.630179	0.885265	0.227796	2.630179	0.729042	0.185083	2.205915	0.676968	0.113888	1.675638	0.624893	1.423677	12.237027	4.633959	0.000000	0.000000	20.190424	-2.163071	20.968210	6.898721	-23.003350	35.339065	44.516284	87.975615	-13.405393	-0.274035	12.035360	-15.349877	61.805723	40.277910	87.806379	-11.292341	8.688724
1.949153	8.145605	2.707804	90.764187	0.108030	0.788921	0.852973	7.250673	4.145907	-5.958829	13.888688	0.242403	33.147632	15.738277	0.000000	1.463043	-2.645396	14.476100	4.834950	0.084386	27.085213	-15.152268	0.000000	0.205513	1.055060	0.757571	0.381658	1.403230	0.804919	0.337637	2.565272	0.804919	0.234881	2.565272	0.662874	0.190839	2.151478	0.615526	0.117430	1.634288	0.568178	1.467957	11.935047	4.213381	0.000000	0.000000	20.223010	-2.040266	20.756801	8.060577	-22.663667	36.225186	46.020150	87.865485	-14.901286	-0.050228	12.294813	-15.419590	60.726464	41.436030	86.157796	-10.780794	9.350508
1.966102	8.013088	2.307855	91.259548	0.108479	0.787350	0.856050	8.207360	3.933610	-6.448151	14.593681	0.254708	33.649446	15.682395	0.000000	2.327335	-2.513211	14.569568	5.178922	0.090389	27.358397	-14.767358	0.000000	0.213311	1.019582	0.661666	0.396139	1.356044	0.703020	0.350448	2.479012	0.703020	0.243793	2.479012	0.578958	0.198080	2.079132	0.537603	0.121886	1.579333	0.496249	1.523656	11.533717	3.679987	0.000000	0.000000	20.149146	-1.865933	20.247041	9.214745	-22.277179	37.289218	47.552248	87.741657	-16.341858	0.220652	12.587097	-15.488230	59.773343	42.626735	84.277419	-10.088246	9.988003
1.983051	7.878639	1.947990	91.903529	0.108912	0.785815	0.858977	9.039461	3.714115	-6.995985	15.179750	0.264937	34.094201	15.574808	0.000000	3.204320	-2.377529	14.594975	5.604076	0.097810	27.731155	-14.146380	0.000000	0.221514	0.978361	0.548152	0.411374	1.301220	0.582412	0.363925	2.378787	0.582412	0.253168	2.378787	0.479633	0.205698	1.995074	0.445374	0.126573	1.515481	0.411114	1.582253	11.067417	3.048658	0.000000	0.000000	19.977464	-1.647616	19.491800	10.343550	-21.852105	38.503157	49.084624	87.611769	-17.540208	0.536777	12.889404	-15.525581	58.892881	43.824625	82.240458	-9.218695	10.464456
2.000000	7.766284	1.622471	92.643505	0.109356	0.784335	0.861679	9.750181	3.512848	-7.556088	15.641852	0.273002	34.466333	15.404586	0.000000	4.080513	-2.264171	14.534227	6.089330	0.106279	28.171132	-13.345609	0.000000	0.230931	0.936321	0.419168	0.428861	1.245307	0.445366	0.379396	2.276571	0.445366	0.263931	2.276571	0.366772	0.214442	1.909346	0.340574	0.131954	1.450361	0.314376	1.649514	10.591852	2.331288	0.000000	0.000000	19.744056	-1.427672	18.599286	11.432950	-21.403799	39.814647	50.605468	87.485073	-18.258881	0.883264	13.083868	-15.542974	57.858194	45.063612	79.864872	-8.408011	10.550987
2.016949	7.684635	1.334467	93.451502	0.109803	0.782928	0.864173	10.344962	3.339861	-8.133426	15.994370	0.279154	34.752972	15.177655	0.000000	4.947650	-2.175822	14.391773	6.634691	0.115797	28.686103	-12.374518	0.000000	0.240614	0.895944	0.281493	0.446845	1.191606	0.299087	0.395305	2.178399	0.299087	0.274998	2.178399	0.246307	0.223434	1.827010	0.228713	0.137487	1.387818	0.211120	1.718683	10.135102	1.565581	0.000000	0.000000	19.472463	-1.222726	17.590241	12.481472	-20.931883	41.231942	52.078667	87.352936	-18.381289	1.206261	13.181721	-15.531126	56.748448	46.340997	77.033902	-7.691583	10.057459
2.033898	7.636341	1.069153	94.273579	0.110306	0.781602	0.866466	10.839757	3.206108	-8.693176	16.230419	0.283274	34.926490	14.883377	0.000000	5.808460	-2.123081	14.093721	7.232605	0.126233	29.265386	-11.194547	0.000000	0.251634	0.859257	0.141858	0.467309	1.142811	0.150724	0.413409	2.089196	0.150724	0.287592	2.089196	0.124126	0.233667	1.752196	0.115259	0.143783	1.330988	0.106393	1.797393	9.720082	0.788970	0.000000	0.000000	19.175863	-1.040447	16.562297	13.516963	-20.452786	42.820487	53.474878	87.254310	-17.849861	1.513299	13.156585	-15.503746	55.588353	47.645974	73.529790	-7.328810	8.778540
